<svg xmlns="http://www.w3.org/2000/svg" viewBox="0 0 64 64" role="img" aria-labelledby="communityServicesTitle">
  <title id="communityServicesTitle">Community Services</title>
  <g fill="#0056b3">
    <!-- Open helping hand -->
    <path d="M26 8c-1.7 0-3 1.3-3 3v19h-2c-2.8 0-5 2.2-5 5v2c-2.2 0-4 1.8-4 4v11c0 4.4 3.6 8 8 8h14c5.5 0 10-4.5 10-10V28c0-2.2-1.8-4-4-4h-1V17c0-1.7-1.3-3-3-3s-3 1.3-3 3v7h-2V11c0-1.7-1.3-3-3-3s-3 1.3-3 3v17h-2V11c0-1.7-1.3-3-3-3z"/>
    <!-- Supportive base / community foundation -->
    <rect x="10" y="56" width="44" height="3" rx="1.5"/>
  </g>
</svg>
